<svg viewBox="0 0 699.26 114.15" xmlns="http://www.w3.org/2000/svg" data-name="Capa 1" id="Capa_1"><title>logo mtmx black</title><path d="M120.86.35v113.8H90.92V69.46L60.57,112.26h-.21L29.93,69.46v44.69H0V.35H12l48.41,66.3L108.83.35Z"></path><path d="M212.69,101H170.58l-5.74,13.15H132.11L184.5,0h14.2l52.46,114.15h-32.8Zm-9.51-21.89L191.64,52.39,180,79.11Z"></path><path d="M325.64,28.38h-27v85.77h-30V28.38H241.57V.4h84.07Z"></path><path d="M459.23.35v113.8H429.29V69.46l-30.36,42.81h-.21L368.3,69.46v44.69H338.37V.35h12l48.41,66.3L447.2.35Z"></path><path d="M551.05,101H508.95l-5.74,13.15H470.48L522.86,0h14.2l52.46,114.15h-32.8Zm-9.51-21.89L530,52.39,518.39,79.11Z"></path><path d="M628.2,55.6,594.34,1.4h34.28l17.27,29.8L663.1,1.4h34.27l-34,54.14,35.88,58.61H664.78L645.83,80.86l-18.89,33.29H592.46Z"></path></svg>